<?xml version="1.0" encoding="UTF-8"?>
<svg width="454px" height="217px" viewBox="0 0 454 217" version="1.1" xmlns="http://www.w3.org/2000/svg" xmlns:xlink="http://www.w3.org/1999/xlink">
    <!-- Generator: Sketch 58 (84663) - https://sketch.com -->
    <title>Untitled 2</title>
    <desc>Created with Sketch.</desc>
    <g id="Page-1" stroke="none" stroke-width="1" fill="none" fill-rule="evenodd">
        <g id="logo" fill="#000000" fill-rule="nonzero">
            <path d="M42,154.83 C42.85,152.28 43.72,149.83 44.57,147.5 C45.32,145.5 46.05,143.7 46.74,142.26 C50.92,142.74 55.1966667,143.253333 59.57,143.8 C64.6703467,144.408315 69.8035859,144.698876 74.94,144.67 L76,144.67 C76.2284691,144.671003 76.447947,144.581053 76.61,144.42 C76.92,144.11 77.34,143.64 77.9,142.96 C78.46,142.28 79.01,141.64 79.61,140.96 C80.21,140.28 80.8,139.57 81.38,138.96 C81.96,138.35 82.43,137.76 82.79,137.33 C83.0252787,137.046134 83.0534367,136.643876 82.86,136.33 C82.657692,136.018754 82.280182,135.87016 81.92,135.96 C81.33,136.1 80.69,136.29 79.99,136.51 C79.1634391,136.752698 78.3215564,136.939783 77.47,137.07 C76.47,137.24 75.17,137.39 73.74,137.49 C72.31,137.59 70.52,137.65 68.48,137.65 C64.48,137.65 60.48,137.54 56.6,137.33 C52.72,137.12 48.6,137 44.73,137 C38.194076,136.907717 31.6661005,137.490811 25.25,138.74 C20.5073221,139.643822 15.9674478,141.398788 11.85,143.92 C8.55066707,145.980706 5.84514331,148.865449 4,152.29 C2.23945445,155.794728 1.21831238,159.62401 1,163.54 C0.983146726,163.825649 1.1062311,164.101656 1.33,164.28 C1.55750974,164.455865 1.85851095,164.504777 2.13,164.41 L8.58,162.26 C8.80588378,162.188684 8.99115739,162.025311 9.09017998,161.810127 C9.18920257,161.594943 9.19276874,161.347953 9.1,161.13 C8.83,160.45 8.58,159.76 8.37,159.13 C8.18194773,158.49716 8.08761294,157.840185 8.09,157.18 C8.04926028,154.681373 8.7448286,152.226017 10.09,150.12 C11.5192978,147.993272 13.4446993,146.246339 15.7,145.03 C18.4484255,143.541662 21.4098732,142.48593 24.48,141.9 C28.2282396,141.166292 32.0407335,140.811174 35.86,140.84 C37.2972676,140.839786 38.7332293,140.926612 40.16,141.1 C41.24,141.24 42.33,141.43 43.41,141.67 C43.04,142.67 42.51,143.97 41.84,145.67 C40.9,148.05 39.84,150.88 38.71,154.08 C37.58,157.28 36.35,160.87 35.1,164.69 C33.85,168.51 32.68,172.41 31.65,176.23 C30.62,180.05 29.74,183.85 29.05,187.47 C28.422015,190.693113 28.0873138,193.966491 28.05,197.25 C28.0526399,200.339713 28.4594239,203.415807 29.26,206.4 C29.363467,206.772786 29.7031222,207.030001 30.09,207.030001 L30.24,207.030001 L34.54,206.28 C34.8120488,206.23053 35.0437176,206.053268 35.1625986,205.803618 C35.2814796,205.553968 35.2730707,205.262384 35.14,205.02 C34.2658544,203.45508 33.6257222,201.770521 33.24,200.02 C32.9296182,198.408607 32.7755699,196.771007 32.78,195.13 C32.7717923,192.329856 32.9287314,189.531665 33.25,186.75 C33.57,184.12 33.95,181.75 34.37,179.75 C34.72023,177.985231 35.1608095,176.239601 35.69,174.52 C36.02,173.52 36.29,172.64 36.5,172.05 L42.34,172.05 C44.3448366,172.025793 46.3491111,172.132688 48.34,172.37 C50.044818,172.615652 51.7201477,173.034485 53.34,173.62 C53.654374,173.721606 53.9991718,173.636375 54.23,173.4 L57.89,169.64 C58.1247868,169.391022 58.18961,169.026531 58.0550646,168.711869 C57.9205192,168.397206 57.6122132,168.192261 57.27,168.19 L37.75,168.19 L39.55,162.53 C40.32,159.99 41.15,157.43 42,154.83 Z" id="Path"></path>
            <path d="M33.79,164.67 C35.18,160.48 36.58,156.44 37.92,152.67 C39.26,148.9 40.54,145.45 41.68,142.53 C41.7779327,142.266167 41.7405837,141.97111 41.58,141.74 C41.4253685,141.503729 41.1623719,141.36096 40.88,141.36 L35,141.36 C34.6463254,141.363671 34.3300752,141.581093 34.2,141.91 C33.2,144.45 32.03,147.68 30.7,151.5 C29.37,155.32 27.96,159.5 26.5,163.88 C25.04,168.26 23.5,172.93 22.04,177.76 C20.58,182.59 19.16,187.3 17.94,191.87 C16.72,196.44 15.69,200.87 14.87,204.93 C14.1179708,208.476189 13.5935667,212.066854 13.3,215.68 C13.2759026,215.966922 13.4004427,216.246194 13.63,216.42 C13.7774263,216.538104 13.9611079,216.601686 14.15,216.6 C14.2397402,216.609671 14.3302598,216.609671 14.42,216.6 L22.48,213.91 C22.8755886,213.778631 23.1200175,213.382488 23.06,212.97 C22.99,212.49 22.94,212.05 22.91,211.67 C22.8910036,211.320258 22.8910036,210.969742 22.91,210.62 C22.9594896,207.567092 23.2605085,204.523457 23.81,201.52 C24.41,197.99 25.23,194.16 26.27,190.14 C27.31,186.12 28.48,181.89 29.8,177.55 C31.12,173.21 32.4,168.83 33.79,164.67 Z" id="Path"></path>
            <path d="M219.78,175.93 C219.392347,175.748139 218.93,175.875391 218.69,176.23 C217.84,177.51 216.58,179.23 214.96,181.46 C213.233546,183.755734 211.356055,185.933891 209.34,187.98 C207.270141,190.085388 204.991781,191.975086 202.54,193.62 C200.453587,195.09069 197.990012,195.933858 195.44,196.05 C194.151737,196.121218 192.86177,195.944696 191.64,195.53 C191.29315,195.38011 190.958763,195.202885 190.64,195 C191.36,194.12 192.31,192.84 193.53,191.12 C195.08,188.92 196.66,186.4 198.25,183.63 C199.852064,180.816746 201.236118,177.884824 202.39,174.86 C203.492594,172.130143 204.09225,169.223338 204.16,166.28 C204.16,158.9 200.6,157.36 197.61,157.36 C195.10795,157.355639 192.707404,158.348968 190.94,160.12 C189.035562,161.974895 187.468809,164.147369 186.31,166.54 C185.039845,169.083578 184.076424,171.769071 183.44,174.54 C182.831118,176.978507 182.495717,179.477243 182.44,181.99 C182.411657,183.863412 182.562341,185.735247 182.89,187.58 C183.124651,188.897579 183.503599,190.185331 184.02,191.42 C184.397308,192.297601 184.855977,193.137937 185.39,193.93 C185.66,194.31 185.91,194.65 186.16,194.93 C185.84,195.27 185.47,195.66 185.06,196.07 C184.40303,196.722313 183.697687,197.324027 182.95,197.87 C182.167371,198.455307 181.309712,198.932906 180.4,199.29 C179.471376,199.646011 178.484511,199.825749 177.49,199.82 C176.75875,199.86041 176.040774,199.612708 175.49,199.13 C174.876609,198.565776 174.380481,197.886149 174.03,197.13 C173.604248,196.224386 173.301563,195.265884 173.13,194.28 C172.931663,193.234789 172.827911,192.173833 172.82,191.11 C172.850948,188.150539 173.240455,185.205736 173.98,182.34 C174.739544,179.256935 175.681196,176.221611 176.8,173.25 C177.799175,170.567458 178.933971,167.937402 180.2,165.37 C181.03247,163.633055 181.99522,161.961614 183.08,160.37 C183.283303,160.099567 183.306868,159.734315 183.14,159.44 C182.980304,159.141495 182.657025,158.968028 182.32,159 L175.98,159.54 C175.701177,159.561269 175.450651,159.718315 175.31,159.96 C173.52,162.96 172.06,165.65 170.98,167.96 C169.9,170.27 169,172.29 168.3,174.29 C167.6,176.29 166.88,178.45 166.23,180.87 C165.58,183.29 164.88,185.8 164.1,188.51 C163.82,189.35 163.36,190.51 162.73,191.87 C162.062389,193.326921 161.262361,194.719438 160.34,196.03 C159.413694,197.36122 158.294822,198.547494 157.02,199.55 C155.910809,200.45386 154.520778,200.941963 153.09,200.93 C151.617536,201.010451 150.27042,200.104209 149.79,198.71 C149.0055,196.749863 148.627846,194.650653 148.68,192.54 C148.725328,189.028296 149.469817,185.560809 150.87,182.34 C152.320885,178.857995 154.07777,175.511549 156.12,172.34 C157.97119,169.453944 159.994869,166.682239 162.18,164.04 C164.25,161.58 165.74,159.87 166.72,158.81 C166.958056,158.557623 167.021153,158.186923 166.88,157.87 C166.741892,157.549684 166.418242,157.3499 166.07,157.37 L149.3,157.91 C148.925943,157.918076 148.601152,158.169789 148.5,158.53 L147.75,161.22 C147.659728,161.546726 147.769798,161.896002 148.031083,162.11194 C148.292368,162.327878 148.656123,162.370193 148.96,162.22 C149.611288,161.906864 150.327553,161.752644 151.05,161.77 C151.601117,161.764772 152.144615,161.898927 152.63,162.16 C152.917732,162.26465 153.104066,162.544151 153.09,162.85 C153.09,162.96 153,163.65 151.22,166.04 C149.84,167.88 148.31,170.18 146.66,172.88 C144.853387,175.879493 143.320531,179.03557 142.08,182.31 C141.303082,184.324716 140.74325,186.416546 140.41,188.55 C139.65,189.38 138.87,190.22 138.07,191.06 C136.175596,193.022721 134.140165,194.844248 131.98,196.51 C129.934832,198.109654 127.701561,199.452975 125.33,200.51 C123.210038,201.464675 120.914906,201.96865 118.59,201.99 C117.978405,201.989581 117.368494,201.925909 116.77,201.8 L116.51,201.74 C117.68,200.8 119.06,199.54 120.64,197.98 C123.104392,195.516963 125.365125,192.858261 127.4,190.03 C129.647829,186.901956 131.567934,183.550987 133.13,180.03 C134.711294,176.55922 135.542725,172.79393 135.57,168.98 C135.699438,165.934902 134.682516,162.951931 132.72,160.62 C130.8,158.47 128,157.38 124.39,157.38 C121.481006,157.396681 118.605894,158.005728 115.94,159.17 C113.119763,160.379297 110.481208,161.974546 108.1,163.91 C105.601275,165.938106 103.310042,168.209241 101.26,170.69 C99.2024521,173.175628 97.3906492,175.854819 95.85,178.69 C94.4079834,181.346979 93.2161852,184.132305 92.29,187.01 C92.29,187.07 92.29,187.13 92.29,187.2 C91.43,188.2 90.54,189.2 89.63,190.2 C87.86,192.14 86.07,193.95 84.3,195.58 C82.7279307,197.053671 81.0127719,198.366839 79.18,199.5 C77.9747616,200.331894 76.5702352,200.828827 75.11,200.94 C74.65,200.94 73.81,200.94 73.81,198.94 C73.8550065,198.061343 73.9924313,197.189869 74.22,196.34 C74.5,195.15 74.84,193.82 75.22,192.34 C75.6,190.86 76.03,189.47 76.46,188 C76.89,186.53 77.28,185.27 77.63,184.2 L95.69,126.81 C95.7792265,126.535172 95.7227262,126.233837 95.54,126.01 C95.3606251,125.788581 95.0841876,125.66904 94.8,125.69 L78.25,127.09 C77.9091272,127.116894 77.6175544,127.345424 77.51,127.67 L76.97,129.29 C76.877689,129.550489 76.9228004,129.839954 77.09,130.06 C77.2505126,130.28192 77.506156,130.415299 77.78,130.42 C78.53,130.42 79.34,130.42 80.18,130.52 C80.9131605,130.56955 81.6363177,130.717545 82.33,130.96 C82.87417,131.139447 83.3608097,131.460422 83.74,131.89 C84.1162643,132.433417 84.2896922,133.091735 84.23,133.75 C84.096145,135.825058 83.7271148,137.878208 83.13,139.87 C82.39,142.7 81.51,145.76 80.51,148.97 L66.43,193.7 C66.07,194.91 65.68,196.2 65.25,197.55 C64.835905,198.741793 64.6033065,199.98906 64.56,201.25 C64.5176255,202.807717 64.9962327,204.335037 65.92,205.59 C66.8662175,206.833523 68.3585141,207.538633 69.92,207.48 C72.1767261,207.408063 74.3812672,206.7831 76.34,205.66 C78.6975306,204.381683 80.9103247,202.852844 82.94,201.1 C85.1540834,199.219799 87.2607391,197.21664 89.25,195.1 C89.87,194.44 90.47,193.78 91.06,193.1 C91.06,193.72 90.98,194.33 90.98,194.93 C90.98,198.77 91.9,201.84 93.7,204.07 C95.5,206.3 98.28,207.5 101.84,207.5 C104.239846,207.564882 106.626025,207.118325 108.84,206.19 C110.42,205.48 111.54,204.95 112.26,204.58 C113.11,204.89 114.03,205.18 114.98,205.43 C118.681806,206.331676 122.584144,205.877585 125.98,204.15 C128.498634,202.964028 130.879546,201.5053 133.08,199.8 C135.349691,198.033718 137.482448,196.09819 139.46,194.01 C139.68,193.79 139.88,193.57 140.09,193.34 C140.09,193.55 140.09,193.75 140.09,193.96 C139.981942,197.291265 140.828542,200.583985 142.53,203.45 C144.065482,206.020713 146.877403,207.553095 149.87,207.45 C151.841654,207.419706 153.761027,206.811209 155.39,205.7 C157.100231,204.573045 158.656619,203.228433 160.02,201.7 C161.325317,200.259132 162.506208,198.710259 163.55,197.07 L164.42,195.65 C164.473333,196.15 164.533333,196.67 164.6,197.21 C164.816436,198.825505 165.253861,200.403602 165.9,201.9 C166.527379,203.361687 167.46185,204.671311 168.64,205.74 C169.960562,206.881645 171.665716,207.478627 173.41,207.41 C175.37043,207.402254 177.298204,206.907424 179.02,205.97 C180.705159,205.083025 182.276616,203.995094 183.7,202.73 C184.944816,201.643664 186.10796,200.46715 187.18,199.21 L188.67,197.42 C189.587496,197.86509 190.528937,198.259027 191.49,198.6 C192.789296,199.084652 194.163305,199.338472 195.55,199.35 C198.4036,199.315881 201.184731,198.446777 203.55,196.85 C206.046044,195.228346 208.350689,193.329614 210.42,191.19 C212.378603,189.181473 214.183674,187.028759 215.82,184.75 C217.31,182.66 218.5,181.02 219.35,179.88 C219.410073,179.80125 219.457323,179.713501 219.49,179.62 L220.35,176.94 C220.449732,176.506595 220.20257,176.068641 219.78,175.93 L219.78,175.93 Z M185.23,182.51 C185.243892,180.096789 185.559678,177.694799 186.17,175.36 C186.749386,173.0104 187.556539,170.722906 188.58,168.53 C189.403119,166.730745 190.462452,165.049265 191.73,163.53 C192.73,162.37 193.66,161.78 194.47,161.78 C195.000695,161.739312 195.527727,161.895997 195.95,162.22 C196.370948,162.586762 196.69689,163.049944 196.9,163.57 C197.167563,164.209884 197.349143,164.882405 197.44,165.57 C197.535728,166.299498 197.585825,167.03426 197.59,167.77 C197.587129,170.418245 197.251159,173.055613 196.59,175.62 C195.96327,178.116607 195.116628,180.552794 194.06,182.9 C193.117484,185.015441 192.024689,187.060672 190.79,189.02 C190.00523,190.274534 189.154018,191.48626 188.24,192.65 L187.72,192.01 C187.263678,191.393323 186.887346,190.721303 186.6,190.01 C186.173988,189.019211 185.839267,187.991618 185.6,186.94 C185.318234,185.480864 185.194188,183.99566 185.23,182.51 L185.23,182.51 Z M124.77,165.35 C125.849825,167.386102 126.387079,169.665987 126.33,171.97 C126.331662,175.261963 125.766751,178.529657 124.66,181.63 C123.611784,184.604894 122.27193,187.468832 120.66,190.18 C119.293337,192.501318 117.709578,194.687776 115.93,196.71 C114.905749,197.876408 113.813869,198.981644 112.66,200.02 C111.102628,198.794548 109.812785,197.263071 108.87,195.52 C107.7,193.44 107.1,190.44 107.1,186.59 C107.127202,184.012548 107.462925,181.447625 108.1,178.95 C108.769763,176.244044 109.739082,173.621181 110.99,171.13 C112.082929,168.906724 113.535846,166.879398 115.29,165.13 C116.601841,163.703633 118.442322,162.879214 120.38,162.85 C122.208497,162.743849 123.928343,163.72326 124.77,165.35 Z M107.45,171.81 C106.249693,174.24486 105.340104,176.812519 104.74,179.46 C104.057918,182.505748 103.722453,185.618861 103.74,188.74 C103.71321,190.510615 103.863963,192.279456 104.19,194.02 C104.447173,195.368491 104.891467,196.674445 105.51,197.9 C106.022406,198.920628 106.653434,199.877239 107.39,200.75 C107.7,201.11 108.03,201.46 108.39,201.81 L108.32,201.81 C107.804964,201.901217 107.283048,201.948056 106.76,201.95 C103.86,201.95 101.85,201.16 100.76,199.6 C99.5758725,197.659172 98.9914195,195.411811 99.08,193.14 C99.0707801,189.577195 99.6728456,186.039215 100.86,182.68 C101.981239,179.460861 103.467597,176.380778 105.29,173.5 C106.702547,171.263761 108.333902,169.173483 110.16,167.26 C109.121809,168.692172 108.214807,170.214999 107.45,171.81 L107.45,171.81 Z" id="Shape"></path>
            <path d="M244.71,204.2 C242.8,203.28 241.4,202.58 240.56,202.12 C239.813002,201.705779 239.112364,201.212986 238.47,200.65 C239.050395,195.493117 239.979184,190.381434 241.25,185.35 C242.64,179.75 244.25,174.09 246.02,168.53 C247.79,162.97 249.69,157.53 251.65,152.28 C253.61,147.03 255.46,142.35 257.18,138.12 C257.286133,137.848426 257.25251,137.542089 257.09,137.3 C256.935258,137.045284 256.645917,136.904523 256.35,136.94 C250.534899,137.093025 244.737527,137.651043 239,138.61 C234.398341,139.34422 229.948885,140.83075 225.83,143.01 C222.302179,144.918742 219.326325,147.705161 217.19,151.1 C214.970844,154.91819 213.71147,159.217907 213.52,163.63 C213.49848,163.917093 213.622045,164.19591 213.84919,164.372802 C214.076335,164.549694 214.376926,164.601192 214.65,164.51 L221.1,162.36 C221.517945,162.221692 221.763957,161.790092 221.67,161.36 C221.515561,160.532574 221.281127,159.722103 220.97,158.94 C220.7287,158.321831 220.606552,157.663586 220.61,157 C220.548095,154.576704 221.247571,152.19499 222.61,150.19 C224.089081,148.149285 226.014711,146.473337 228.24,145.29 C230.827245,143.889152 233.60726,142.878237 236.49,142.29 C239.7031,141.618271 242.977442,141.283129 246.26,141.29 C246.81,141.29 247.35,141.29 247.87,141.34 L248.3,141.34 C247.3,143.4 246.3,145.86 245.19,148.68 C243.87,152.03 242.48,155.78 241.04,159.84 C239.6,163.9 238.16,168.14 236.74,172.49 C235.32,176.84 234,181.21 232.88,185.29 C231.76,189.37 230.72,193.23 229.88,196.83 C229.125537,199.837479 228.544579,202.88584 228.14,205.96 C228.107956,206.212989 228.192572,206.466836 228.37,206.65 C228.531127,206.820887 228.755135,206.918439 228.99,206.92 L229,206.92 L244.37,205.85 C244.760967,205.821301 245.08445,205.53467 245.16,205.15 C245.247266,204.767424 245.061302,204.374833 244.71,204.2 Z" id="Path"></path>
            <path d="M284.91,138.34 C283.816575,137.330269 282.52625,136.557436 281.12,136.07 C279.733248,135.575697 278.272213,135.322045 276.8,135.32 C272.7,135.32 268.47,136.82 264.22,139.78 C259.97,142.74 256.1,147.55 252.61,154.16 C251.109769,157.063834 249.819791,160.071554 248.75,163.16 C247.56,166.51 246.5,169.9 245.61,173.22 C244.743232,176.398744 244.038986,179.619586 243.5,182.87 C243.03183,185.488509 242.774339,188.140337 242.73,190.8 C242.73,196.69 244.14,200.99 246.93,203.58 C249.72,206.17 253.71,207.46 258.85,207.46 C262.148604,207.488325 265.423898,206.905146 268.51,205.74 C271.304323,204.687834 273.898318,203.165934 276.18,201.24 C278.271517,199.463075 279.988235,197.287432 281.23,194.84 C282.410242,192.522617 283.030194,189.960604 283.04,187.36 C283.101281,184.521594 282.366916,181.722691 280.92,179.28 C279.536941,177.041252 277.725671,175.097451 275.59,173.56 C273.408361,171.987956 271.023203,170.719685 268.5,169.79 C267.126855,169.275715 265.728372,168.831805 264.31,168.46 C265.84,168.08 267.5,167.61 269.31,167.06 C272.45794,166.088105 275.479149,164.745346 278.31,163.06 C281.097899,161.405396 283.564129,159.260995 285.59,156.73 C287.668734,154.06363 288.760533,150.759967 288.68,147.38 C288.727471,145.5785 288.386406,143.787905 287.68,142.13 C287.015187,140.696623 286.073844,139.408649 284.91,138.34 L284.91,138.34 Z M251.66,165.59 C251.98,164.66 252.37,163.59 252.84,162.27 C253.31,160.95 253.84,159.69 254.42,158.35 C254.952139,157.150214 255.570421,155.990517 256.27,154.88 C258.430926,150.8306 261.218698,147.148446 264.53,143.97 C266.896739,141.658898 270.052835,140.332838 273.36,140.26 C275.225811,140.099253 277.055533,140.843042 278.28,142.26 C279.37846,143.649813 279.958365,145.378921 279.92,147.15 C279.912786,149.656602 279.25094,152.117845 278,154.29 C276.641745,156.650366 274.854408,158.736158 272.73,160.44 C270.35742,162.323754 267.678311,163.785086 264.81,164.76 C261.688435,165.846007 258.405055,166.3938 255.1,166.380254 C253.87,166.380254 252.65,166.31 251.45,166.19 C251.51,166.03 251.58,165.83 251.66,165.59 Z M247.56,197.29 C246.851752,195.304971 246.512834,193.207067 246.56,191.1 C246.568735,188.944731 246.729131,186.792749 247.04,184.66 C247.35,182.41 247.73,180.24 248.15,178.21 C248.57,176.18 249.02,174.37 249.48,172.79 L250.35,169.79 C250.53,169.79 250.73,169.74 250.93,169.73 C251.34,169.73 251.74,169.68 252.15,169.68 C253.284152,169.699458 254.416146,169.786277 255.54,169.94 C257.076463,170.139505 258.592336,170.474135 260.07,170.94 C261.760879,171.455921 263.401041,172.125375 264.97,172.94 C266.603851,173.793807 268.092265,174.900836 269.38,176.22 C270.72598,177.639126 271.794383,179.297695 272.53,181.11 C273.38452,183.280046 273.79922,185.598288 273.75,187.93 C273.765827,190.064198 273.427917,192.186271 272.75,194.21 C272.11393,196.09201 271.126458,197.836205 269.84,199.35 C268.563787,200.822489 266.979827,201.996804 265.2,202.79 C263.191183,203.660632 261.019,204.090295 258.83,204.05 C257.170145,204.066697 255.516527,203.844418 253.92,203.39 C252.498159,202.980643 251.195111,202.236534 250.12,201.22 C248.988317,200.113974 248.11426,198.772159 247.56,197.29 L247.56,197.29 Z" id="Shape"></path>
            <path d="M332.4,168.46 L336.59,159.33 C336.679445,159.115622 336.679445,158.874378 336.59,158.66 C336.503548,158.447155 336.338976,158.275426 336.13,158.18 C335.112755,157.691106 334.00742,157.412222 332.88,157.36 C329.643167,157.42764 326.529823,158.615022 324.07,160.72 C321.166737,163.076257 318.584756,165.802801 316.39,168.83 C313.915866,172.198644 311.715498,175.76003 309.81,179.48 C307.81,183.31 306.1,186.98 304.63,190.39 C303.963333,191.93 303.356667,193.386667 302.81,194.76 L314.03,158.47 C314.113706,158.19769 314.057129,157.901599 313.878918,157.679336 C313.700707,157.457073 313.423995,157.337487 313.14,157.36 L296.91,158.76 C296.57111,158.791922 296.281963,159.01855 296.17,159.34 L295.63,160.95 C295.542995,161.214232 295.587596,161.504139 295.75,161.73 C295.911573,161.94938 296.167543,162.07922 296.44,162.08 L298.44,162.08 C302.74,162.08 302.74,163.8 302.74,164.45 C302.711087,165.422506 302.590553,166.39012 302.38,167.34 C302.13,168.59 301.82,169.9 301.48,171.22 C301.14,172.54 300.76,173.85 300.41,175.06 C300.06,176.27 299.77,177.19 299.56,177.83 L299.56,177.83 L290.82,206.29 C290.736317,206.55039 290.783046,206.835139 290.945559,207.055127 C291.108073,207.275116 291.366516,207.403463 291.64,207.400068 L291.78,207.400068 L301.66,205.79 C301.989773,205.739681 302.259627,205.501115 302.35,205.18 C302.49,204.7 302.92,203.38 303.68,201.18 C304.44,198.98 305.42,196.37 306.62,193.44 C307.82,190.51 309.25,187.33 310.84,184.03 C312.357353,180.879793 314.0638,177.824217 315.95,174.88 C317.522156,172.36603 319.425958,170.075413 321.61,168.07 C323.065704,166.573159 325.026168,165.671345 327.11,165.54 C328.86,165.54 329.41,165.95 329.57,166.19 C330.058933,166.915065 330.483868,167.681286 330.84,168.48 C330.980328,168.784444 331.284772,168.9796 331.62,168.98 L331.62,168.98 C331.961537,168.981357 332.269892,168.775787 332.4,168.46 L332.4,168.46 Z" id="Path"></path>
            <path d="M452.7,175.93 C452.312347,175.748139 451.85,175.875391 451.61,176.23 C450.76,177.5 449.51,179.23 447.88,181.46 C446.153546,183.755734 444.276055,185.933891 442.26,187.98 C440.190141,190.085388 437.911781,191.975086 435.46,193.62 C433.372821,195.089189 430.909697,195.932202 428.36,196.05 C427.071737,196.121218 425.78177,195.944696 424.56,195.53 C424.21315,195.38011 423.878763,195.202885 423.56,195 C424.28,194.12 425.23,192.84 426.45,191.12 C427.99,188.92 429.58,186.4 431.17,183.63 C432.773961,180.817733 434.158086,177.885662 435.31,174.86 C436.413653,172.130464 437.013349,169.223463 437.08,166.28 C437.08,158.9 433.52,157.36 430.53,157.36 C428.02795,157.355639 425.627404,158.348968 423.86,160.12 C421.955562,161.974895 420.388809,164.147369 419.23,166.54 C417.96422,169.085446 417.000989,171.770411 416.36,174.54 C415.751118,176.978507 415.415717,179.477243 415.36,181.99 C415.331657,183.863412 415.482341,185.735247 415.81,187.58 C416.041833,188.898241 416.420871,190.186302 416.94,191.42 C417.316384,192.29999 417.77862,193.140724 418.32,193.93 C418.58,194.31 418.84,194.66 419.08,194.93 C418.76,195.27 418.4,195.65 417.98,196.07 C417.32303,196.722313 416.617687,197.324027 415.87,197.87 C415.088786,198.444025 414.234613,198.911466 413.33,199.26 C412.401376,199.616011 411.414511,199.795749 410.42,199.79 C409.6889,199.829337 408.971317,199.581771 408.42,199.1 C407.806609,198.535776 407.310481,197.856149 406.96,197.1 C406.534248,196.194386 406.231563,195.235884 406.06,194.25 C405.861177,193.204859 405.75742,192.143859 405.75,191.08 C405.780948,188.120539 406.170455,185.175736 406.91,182.31 C407.669544,179.226935 408.611196,176.191611 409.73,173.22 C410.82,170.33 411.97,167.68 413.13,165.34 C413.96247,163.603055 414.92522,161.931614 416.01,160.34 C416.211324,160.068975 416.235442,159.705222 416.071663,159.40999 C415.907884,159.114757 415.586509,158.942665 415.25,158.97 L408.91,159.51 C408.631177,159.531269 408.380651,159.688315 408.24,159.93 C406.45,162.93 404.99,165.63 403.91,167.93 C402.83,170.23 401.91,172.34 401.19,174.28 C400.47,176.22 399.78,178.43 399.12,180.86 C398.46,183.29 397.76,185.86 396.99,188.5 C396.71,189.34 396.25,190.5 395.62,191.86 C394.952389,193.316921 394.152361,194.709438 393.23,196.02 C392.303694,197.35122 391.184822,198.537494 389.91,199.54 C388.802041,200.428695 387.420247,200.905785 386,200.89 C384.527536,200.970451 383.18042,200.064209 382.7,198.67 C381.9155,196.709863 381.537846,194.610653 381.59,192.5 C381.635328,188.988296 382.379817,185.520809 383.78,182.3 C385.230885,178.817995 386.98777,175.471549 389.03,172.3 C390.88119,169.413944 392.904869,166.642239 395.09,164 C397.17,161.53 398.65,159.82 399.63,158.77 C399.868056,158.517623 399.931153,158.146923 399.79,157.83 C399.661992,157.501117 399.331373,157.297032 398.98,157.33 L382.21,157.87 C381.835943,157.878076 381.511152,158.129789 381.41,158.49 L380.66,161.18 C380.569728,161.506726 380.679798,161.856002 380.941083,162.07194 C381.202368,162.287878 381.566123,162.330193 381.87,162.18 C382.521288,161.866864 383.237553,161.712644 383.96,161.73 C384.511117,161.724772 385.054615,161.858927 385.54,162.12 C385.827732,162.22465 386.014066,162.504151 386,162.81 C386,162.92 385.91,163.61 384.13,166 C382.75,167.85 381.22,170.15 379.57,172.84 C377.765751,175.846251 376.236226,179.009054 375,182.29 C374.248954,184.228445 373.699392,186.239036 373.36,188.29 C372.36,189.29 371.42,190.29 370.36,191.21 C367.357563,193.987267 364.037953,196.400613 360.47,198.4 C357.082918,200.348229 353.247377,201.382067 349.34,201.4 C346.955594,201.5491 344.596593,200.839627 342.69,199.4 C341.18,198.11 340.41,195.85 340.41,192.69 C340.411052,191.302727 340.551762,189.919084 340.83,188.56 C341.05,187.43 341.33,186.28 341.65,185.13 C346.567753,186.408396 351.778477,185.91635 356.37,183.74 C359.144909,182.43744 361.691068,180.694976 363.91,178.58 C365.934991,176.651477 367.654681,174.425997 369.01,171.98 C370.215343,169.948432 370.899011,167.650068 371,165.29 C371.161881,163.05165 370.327524,160.855976 368.72,159.29 C367.253672,157.970898 365.342058,157.256275 363.37,157.29 C360.744348,157.320734 358.158468,157.935606 355.8,159.09 C353.191084,160.340902 350.748808,161.913096 348.53,163.77 C346.126485,165.776093 343.925911,168.01351 341.96,170.45 C339.95683,172.906069 338.182757,175.5404 336.66,178.32 C335.21557,180.937534 334.023529,183.686594 333.1,186.53 C332.257286,189.059676 331.808707,191.703929 331.77,194.37 C331.77,198.46 332.94,201.68 335.25,203.96 C337.56,206.24 340.94,207.3701 345.31,207.3701 C348.49783,207.378409 351.664696,206.854541 354.68,205.82 C357.59154,204.818578 360.374249,203.475896 362.97,201.82 C365.50114,200.197506 367.88078,198.350021 370.08,196.3 C371.08,195.37 372.08,194.43 372.94,193.49 L372.94,193.84 C372.831942,197.171265 373.678542,200.463985 375.38,203.33 C376.915482,205.900713 379.727403,207.433095 382.72,207.33 C384.691654,207.299706 386.611027,206.691209 388.24,205.58 C389.950231,204.453045 391.506619,203.108433 392.87,201.58 C394.175317,200.139132 395.356208,198.590259 396.4,196.95 L397.27,195.53 C397.27,196.03 397.38,196.53 397.45,197.09 C397.666436,198.705505 398.103861,200.283602 398.75,201.78 C399.374894,203.243084 400.309721,204.553206 401.49,205.62 C402.810562,206.761645 404.515716,207.358627 406.26,207.29 C408.22043,207.282254 410.148204,206.787424 411.87,205.85 C413.556792,204.96064 415.131284,203.872932 416.56,202.61 C417.782035,201.584185 418.931459,200.474857 420,199.29 L421.49,197.5 C422.407496,197.94509 423.348937,198.339027 424.31,198.68 C425.609296,199.164652 426.983305,199.418472 428.37,199.43 C431.2236,199.395881 434.004731,198.526777 436.37,196.93 C438.866044,195.308346 441.170689,193.409614 443.24,191.27 C445.195751,189.258896 447.000639,187.1064 448.64,184.83 C450.13,182.74 451.32,181.1 452.17,179.96 C452.230801,179.883227 452.275062,179.794705 452.3,179.7 L453.16,177.02 C453.320636,176.592157 453.118591,176.113398 452.7,175.93 L452.7,175.93 Z M418.14,182.51 C418.157888,180.096419 418.477023,177.694513 419.09,175.36 C419.67263,173.011371 420.479675,170.724186 421.5,168.53 C422.324164,166.73131 423.383413,165.049963 424.65,163.53 C425.65,162.37 426.58,161.78 427.39,161.78 C427.920695,161.739312 428.447727,161.895997 428.87,162.22 C429.309181,162.581011 429.652638,163.044679 429.87,163.57 C430.138585,164.208854 430.316962,164.881976 430.4,165.57 C430.50388,166.298779 430.55734,167.033859 430.56,167.77 C430.557129,170.418245 430.221159,173.055613 429.56,175.62 C428.930448,178.11448 428.087336,180.550137 427.04,182.9 C426.088147,185.012726 424.992232,187.057543 423.76,189.02 C422.97523,190.274534 422.124018,191.48626 421.21,192.65 L420.69,192.01 C420.233678,191.393323 419.857346,190.721303 419.57,190.01 C419.14092,189.02037 418.806105,187.992488 418.57,186.94 C418.26756,185.483126 418.123391,183.997843 418.14,182.51 Z M362.38,162.58 C363.027835,163.625604 363.373921,164.829984 363.38,166.06 C363.361844,167.943958 363.048023,169.813385 362.45,171.6 C361.871479,173.451418 361.02229,175.207084 359.93,176.81 C358.926029,178.283942 357.653942,179.556029 356.18,180.56 C354.88975,181.47187 353.349942,181.964189 351.77,181.97001 C350.789425,181.971285 349.812305,181.853762 348.86,181.62 C347.968343,181.399544 347.0956,181.108629 346.25,180.75 C345.47,180.41 344.76,180.08 344.17,179.75 C343.91,179.62 343.69,179.49 343.5,179.38 C343.89,178.5 344.5,177.22 345.29,175.56 C346.383941,173.327814 347.672246,171.196255 349.14,169.19 C350.623361,167.109683 352.34507,165.210097 354.27,163.53 C355.802719,162.073811 357.826135,161.245888 359.94,161.21 C360.946666,161.169751 361.890275,161.699564 362.38,162.58 Z" id="Shape"></path>
            <path d="M203.37,78.97 C202.37,79.12 201.27,79.2 200.21,79.25 C199.68,79.25 199.15,79.25 198.62,79.25 L197,79.25 C195.94,79.25 194.88,79.17 193.82,79.09 C192.76,79.01 191.69,78.88 190.63,78.74 C189.57,78.6 188.52,78.41 187.46,78.2 C186.4,77.99 185.36,77.74 184.32,77.46 C183.28,77.18 182.24,76.86 181.21,76.51 C180.18,76.16 179.21,75.75 178.16,75.32 C177.11,74.89 176.16,74.41 175.16,73.89 C174.181922,73.3681589 173.23072,72.7974374 172.31,72.18 C171.39,71.56 170.48,70.9 169.61,70.18 C168.74,69.46 167.93,68.69 167.14,67.88 C166.374055,67.0615214 165.659362,66.1965433 165,65.29 C164.320176,64.3769367 163.69893,63.421687 163.14,62.43 C162.589855,61.4297049 162.099007,60.397924 161.67,59.34 C161.269612,58.2886508 160.935622,57.2132023 160.67,56.12 L160.25,54.56 L161.53,53.73 L161.98,53.46 L162.4,53.23 C162.68,53.07 162.95,52.93 163.23,52.79 C163.499656,52.6425832 163.776685,52.509075 164.06,52.39 L164.9,52.01 C165.46,51.78 166.02,51.53 166.59,51.32 C167.16,51.11 167.72,50.9 168.3,50.73 L169.16,50.45 C169.45,50.35 169.74,50.28 170.03,50.2 L170.9,49.96 C171.19,49.88 171.48,49.82 171.78,49.75 L173.53,49.37 L175.3,49.08 C175.59,49.03 175.89,49 176.19,48.96 L177.08,48.87 L177.97,48.78 C178.26,48.78 178.56,48.78 178.86,48.72 L180.63,48.64 L182.41,48.64 C183,48.64 183.59,48.64 184.18,48.72 L185.93,48.88 C186.52,48.88 187.1,49.04 187.68,49.13 L189.4,49.44 L187.66,49.65 L186.8,49.74 L186.37,49.74 L185.94,49.81 L184.23,50.05 L183.81,50.11 L183.38,50.18 L182.54,50.34 L180.86,50.65 L179.2,51.04 C178.93,51.1 178.65,51.15 178.38,51.23 L177.56,51.45 L176.74,51.67 C176.47,51.74 176.2,51.81 175.93,51.9 L174.33,52.41 C173.79,52.58 173.27,52.78 172.74,52.96 C172.21,53.14 171.74,53.37 171.18,53.56 L170.41,53.87 L169.65,54.2 L168.89,54.54 L168.14,54.9 C167.64,55.12 167.14,55.39 166.67,55.64 C166.42,55.76 166.19,55.9 165.95,56.03 L165.6,56.23 L165.25,56.44 L164.57,56.85 L164.24,57.06 L163.96,57.25 L164.82,54.87 C165.13,55.78 165.47,56.68 165.82,57.55 C166.207985,58.4194673 166.648809,59.2643794 167.14,60.08 C167.615344,60.9030366 168.143098,61.6946685 168.72,62.45 C168.86,62.65 169.02,62.83 169.16,63.01 L169.39,63.29 L169.62,63.56 L170.09,64.11 L170.57,64.64 C171.23,65.33 171.93,66 172.66,66.64 C173.39,67.28 174.16,67.88 174.95,68.45 C175.74,69.02 176.56,69.56 177.4,70.08 C178.24,70.6 179.11,71.08 179.99,71.54 C180.87,72 181.77,72.44 182.69,72.86 C183.61,73.28 184.54,73.66 185.48,74.03 C186.42,74.4 187.38,74.76 188.34,75.08 C189.3,75.4 190.28,75.73 191.27,76.03 C192.26,76.33 193.27,76.6 194.27,76.87 C195.27,77.14 196.27,77.39 197.27,77.63 L198.8,77.98 L200.33,78.3 C201.3,78.58 202.33,78.79 203.37,78.97 Z" id="Path"></path>
            <path d="M197.92,55.04 C197.246878,54.4335382 196.612308,53.7856092 196.02,53.1 C195.42,52.43 194.86,51.72 194.31,51 C193.76,50.28 193.24,49.52 192.76,48.75 L192.39,48.18 L192.04,47.59 L191.69,47 L191.36,46.4 L191.03,45.8 L190.72,45.18 L190.41,44.56 C190.31,44.36 190.22,44.15 190.12,43.94 C189.94,43.52 189.74,43.1 189.57,42.67 C189.4,42.24 189.22,41.82 189.06,41.38 C188.9,40.94 188.75,40.51 188.6,40.07 L188.19,38.74 C188.06,38.29 187.96,37.84 187.84,37.38 C187.72,36.92 187.63,36.47 187.54,36.01 C187.45,35.55 187.35,35.09 187.29,34.63 C187.23,34.17 187.14,33.7 187.09,33.23 L186.97,31.82 C186.97,31.35 186.97,30.87 186.91,30.4 C186.91,30.16 186.91,29.93 186.91,29.69 L186.91,28.98 L186.91,28.26 C186.91,28.03 186.91,27.79 186.91,27.55 L187.04,26.13 C187.04,25.89 187.11,25.66 187.14,25.42 L187.25,24.71 L187.37,24.01 L187.52,23.31 C187.63,22.84 187.73,22.38 187.85,21.92 C188.13,21 188.37,20.08 188.73,19.19 C188.9,18.75 189.06,18.3 189.25,17.86 L189.86,16.57 C189.96,16.36 190.05,16.14 190.17,15.93 L190.51,15.31 L191.2,14.07 L192.1,12.48 L193.74,13.06 L193.98,13.14 L194.18,13.21 L194.58,13.37 L195.34,13.69 C195.84,13.92 196.34,14.15 196.81,14.4 C197.28,14.65 197.81,14.9 198.24,15.17 L198.94,15.57 L199.62,16 L200.3,16.44 L200.96,16.9 L201.61,17.37 C201.83,17.52 202.04,17.69 202.25,17.86 C202.46,18.03 202.67,18.19 202.88,18.36 L203.5,18.88 C203.91,19.22 204.29,19.59 204.68,19.95 C205.07,20.31 205.45,20.7 205.81,21.09 C206.17,21.48 206.53,21.88 206.88,22.28 C207.23,22.68 207.55,23.1 207.88,23.54 L208.35,24.18 C208.5,24.39 208.64,24.61 208.79,24.84 C208.941577,25.0558636 209.081768,25.279502 209.21,25.51 C209.35,25.73 209.5,25.95 209.62,26.18 C209.87,26.65 210.14,27.1 210.36,27.58 C210.47,27.82 210.59,28.05 210.69,28.29 L210.99,29.01 C211.1,29.25 211.18,29.5 211.27,29.74 C211.36,29.98 211.44,30.24 211.52,30.48 C211.18,30.08 210.88,29.67 210.52,29.28 L210.03,28.7 L209.52,28.13 C209.18,27.75 208.83,27.39 208.52,27.03 C208.21,26.67 207.81,26.31 207.44,25.98 L206.9,25.47 L206.33,24.98 C206.15,24.81 205.96,24.65 205.77,24.5 L205.19,24.03 C204.8,23.73 204.42,23.42 204.02,23.13 C203.62,22.84 203.22,22.56 202.82,22.28 L201.59,21.48 L200.97,21.09 L200.34,20.72 L199.06,20.01 L198.41,19.67 L197.76,19.35 L196.45,18.73 C196.01,18.53 195.56,18.34 195.12,18.16 L193.78,17.65 L193.11,17.43 L192.78,17.32 L192.63,17.32 L192.55,17.32 L192.5,17.32 L195.04,16.32 L194.5,17.43 L194.22,17.99 C194.13,18.17 194.06,18.36 193.98,18.55 L193.5,19.69 C193.35,20.07 193.23,20.46 193.09,20.85 L192.88,21.43 C192.81,21.62 192.77,21.82 192.71,22.01 L192.36,23.19 C192.26,23.59 192.18,23.99 192.09,24.39 L191.95,24.99 L191.85,25.59 C191.79,25.99 191.7,26.4 191.65,26.8 L191.5,28.02 C191.5,28.23 191.5,28.43 191.5,28.64 L191.5,29.25 L191.5,29.87 C191.5,30.07 191.5,30.28 191.5,30.49 L191.5,31.11 C191.5,31.31 191.5,31.52 191.5,31.73 L191.5,32.97 C191.5,33.38 191.55,33.8 191.58,34.22 C191.58,34.42 191.58,34.63 191.58,34.84 L191.65,35.46 C191.73,36.3 191.88,37.12 192,37.96 L192.23,39.21 L192.5,40.45 C192.69,41.28 192.9,42.11 193.14,42.93 C193.14,43.14 193.25,43.35 193.31,43.55 L193.5,44.17 L193.69,44.79 L193.89,45.4 L194.09,46.02 L194.31,46.63 C194.45,47.0433333 194.6,47.4533333 194.76,47.86 C194.91,48.27 195.07,48.67 195.23,49.08 C195.39,49.49 195.56,49.89 195.73,50.3 L196.25,51.51 L196.8,52.72 C197.12,53.43 197.51,54.29 197.92,55.04 Z" id="Path"></path>
            <path d="M180,91.5 C179.497104,91.4851954 178.995869,91.4350719 178.5,91.35 C178.01,91.27 177.5,91.17 177.04,91.05 C176.58,90.93 176.04,90.79 175.61,90.64 C175.18,90.49 174.67,90.32 174.21,90.14 C173.75,89.96 173.28,89.76 172.84,89.55 L172.16,89.22 L171.5,88.87 C171.06,88.63 170.63,88.37 170.2,88.11 C169.77,87.85 169.36,87.56 168.95,87.26 C168.54,86.96 168.14,86.66 167.75,86.34 C167.36,86.02 166.97,85.69 166.6,85.34 C166.23,84.99 165.87,84.63 165.51,84.26 C165.15,83.89 164.82,83.5 164.51,83.1 C164.2,82.7 163.87,82.3 163.57,81.88 C163.42,81.67 163.27,81.45 163.13,81.23 C162.99,81.01 162.85,80.8 162.72,80.58 L162.33,79.9 C162.2,79.68 162.08,79.44 161.97,79.21 L161.79,78.86 L161.63,78.51 L161.32,77.79 L160.72,76.42 L161.6,75.52 C161.79,75.32 161.96,75.16 162.14,74.98 L162.68,74.48 C163.04,74.16 163.41,73.84 163.79,73.53 L164.37,73.07 C164.56,72.92 164.75,72.77 164.95,72.63 C165.34,72.33 165.75,72.06 166.16,71.79 C166.36,71.65 166.58,71.52 166.79,71.4 C167,71.28 167.21,71.14 167.43,71.02 L168.08,70.67 C168.3,70.55 168.53,70.45 168.76,70.35 C168.99,70.25 169.22,70.15 169.45,70.06 L169.8,69.92 L170.15,69.81 C170.388726,69.7248779 170.632534,69.6547415 170.88,69.6 C171.12,69.55 171.37,69.5 171.61,69.47 C171.45,69.66 171.28,69.84 171.12,70.02 C170.96,70.2 170.96,70.2 170.88,70.29 L170.65,70.56 C170.49,70.74 170.34,70.92 170.2,71.1 C170.05,71.29 169.9,71.46 169.76,71.65 L169.32,72.2 L168.9,72.75 L168.06,73.85 L167.65,74.4 L167.24,74.95 L166.42,76.05 L165.61,77.15 L165.21,77.7 L164.83,78.22 L165.11,75.95 L165.45,76.5 L165.62,76.77 L165.79,77.04 L166.15,77.58 L166.52,78.1 C166.64,78.28 166.77,78.45 166.9,78.63 C167.03,78.81 167.15,78.97 167.29,79.14 C167.56,79.48 167.81,79.83 168.1,80.14 C168.39,80.45 168.66,80.8 168.93,81.14 L169.37,81.63 C169.51,81.79 169.66,81.95 169.82,82.11 C169.97,82.27 170.11,82.44 170.27,82.6 L170.72,83.07 C171.04,83.38 171.34,83.71 171.67,84.02 L172.67,84.95 L173.67,85.88 L174.67,86.8 C175.01,87.11 175.35,87.42 175.67,87.72 C175.99,88.02 176.37,88.34 176.73,88.64 C177.09,88.94 177.44,89.26 177.8,89.57 L178.89,90.52 C179.23,90.84 179.6,91.17 180,91.5 Z" id="Path"></path>
            <path d="M177.08,50.29 C176.671961,49.9286341 176.28782,49.5411522 175.93,49.13 C175.75,48.92 175.58,48.72 175.41,48.5 C175.24,48.28 175.08,48.08 174.92,47.85 C174.76,47.62 174.6,47.41 174.45,47.19 L174.01,46.5 C173.72,46.04 173.46,45.57 173.2,45.09 L172.83,44.36 C172.71,44.11 172.59,43.87 172.48,43.62 C172.26,43.11 172.05,42.62 171.86,42.09 C171.67,41.56 171.49,41.09 171.34,40.53 C171.26,40.26 171.18,40 171.11,39.73 L170.92,38.93 C170.8,38.39 170.68,37.85 170.6,37.3 C170.52,36.75 170.45,36.2 170.39,35.64 C170.39,35.37 170.39,35.09 170.33,34.81 C170.315047,34.5301996 170.315047,34.2498004 170.33,33.97 C170.33,33.69 170.33,33.41 170.33,33.13 L170.33,32.29 C170.33,32.01 170.33,31.73 170.38,31.45 C170.43,31.17 170.38,30.89 170.45,30.62 C170.53,30.06 170.59,29.5 170.7,28.95 C170.75,28.67 170.8,28.4 170.86,28.12 L171.06,27.3 C171.12,27.03 171.2,26.76 171.28,26.49 C171.36,26.22 171.45,25.96 171.53,25.69 L172,24.29 L173.29,24.18 L174.17,24.11 L175.03,24.11 C175.61,24.11 176.18,24.11 176.75,24.11 L177.61,24.11 L178.47,24.11 L179.33,24.18 L180.19,24.28 L181.05,24.39 C181.33,24.44 181.62,24.48 181.9,24.54 L182.75,24.71 L183.6,24.93 C183.88,25 184.16,25.09 184.44,25.18 C184.72,25.27 184.99,25.36 185.26,25.48 C185.53,25.6 185.8,25.7 186.06,25.84 C186.32,25.98 186.58,26.11 186.83,26.26 L185.97,26.33 C185.83,26.33 185.69,26.33 185.55,26.33 L185.13,26.38 L184.3,26.48 C184.03,26.53 183.76,26.54 183.49,26.59 L182.68,26.72 L181.87,26.86 C181.6,26.86 181.33,26.95 181.06,26.99 L180.26,27.14 L178.66,27.44 L177.87,27.59 C177.6,27.59 177.34,27.69 177.07,27.74 L176.28,27.9 L175.49,28.05 L174.7,28.21 L173.94,28.37 L175.68,26.81 C175.61,27.29 175.5,27.75 175.43,28.23 C175.36,28.71 175.28,29.17 175.23,29.64 C175.18,30.11 175.12,30.59 175.07,31.06 C175.07,31.3 175.07,31.54 175.07,31.78 C175.07,32.02 175.07,32.25 175.07,32.49 L175.07,33.21 C175.07,33.45 175.07,33.69 175.07,33.93 C175.07,34.4 175.07,34.93 175.07,35.37 C175.07,35.81 175.07,36.37 175.12,36.81 C175.17,37.25 175.19,37.81 175.21,38.27 C175.23,38.73 175.3,39.27 175.36,39.73 C175.36,39.97 175.41,40.22 175.44,40.46 C175.47,40.7 175.44,40.95 175.53,41.2 C175.59,41.69 175.67,42.2 175.74,42.68 L175.86,43.42 L175.99,44.17 L176.12,44.92 C176.12,45.17 176.22,45.41 176.26,45.67 L176.57,47.18 L176.73,47.95 L176.9,48.71 L177.08,50.29 Z" id="Path"></path>
            <path d="M245,78.97 C246,78.79 247.07,78.58 248.09,78.37 L249.62,78.05 L251.15,77.7 C252.15,77.46 253.15,77.21 254.15,76.94 C255.15,76.67 256.15,76.4 257.15,76.1 C258.15,75.8 259.15,75.49 260.08,75.15 C261.01,74.81 262,74.48 262.94,74.1 C263.88,73.72 264.82,73.34 265.73,72.93 C266.64,72.52 267.55,72.08 268.43,71.61 C269.31,71.14 270.18,70.67 271.02,70.15 C271.86,69.63 272.68,69.09 273.47,68.52 C274.26,67.95 275.03,67.35 275.76,66.71 C276.49,66.07 277.19,65.41 277.85,64.71 L278.33,64.18 L278.8,63.63 L279.03,63.36 L279.26,63.08 C279.4,62.9 279.56,62.72 279.7,62.52 C280.276902,61.7646685 280.804656,60.9730366 281.28,60.15 C281.771191,59.3343794 282.212015,58.4894673 282.6,57.62 C282.98,56.75 283.32,55.85 283.6,54.94 L284.46,57.32 L284.18,57.13 L283.85,56.92 L283.17,56.51 L282.82,56.3 L282.47,56.1 L281.75,55.71 C281.26,55.46 280.75,55.19 280.28,54.97 L279.53,54.61 L278.77,54.27 L278.01,53.94 L277.24,53.63 C276.72,53.44 276.24,53.2 275.68,53.03 C275.12,52.86 274.63,52.65 274.09,52.48 L272.49,51.97 C272.22,51.88 271.95,51.81 271.68,51.74 L270.86,51.52 L270.04,51.3 C269.77,51.22 269.49,51.17 269.22,51.11 L267.56,50.72 L265.88,50.41 L265.04,50.25 L264.61,50.18 L264.19,50.12 L262.48,49.88 L262.05,49.81 L261.62,49.81 L260.75,49.72 L259.01,49.51 L260.74,49.2 C261.32,49.11 261.9,48.99 262.48,48.95 L264.24,48.79 C264.83,48.73 265.42,48.73 266.01,48.71 L267.79,48.71 L269.56,48.79 C269.86,48.79 270.16,48.79 270.45,48.85 L271.34,48.94 L272.23,49.03 C272.53,49.03 272.83,49.1 273.12,49.15 L274.89,49.44 L276.64,49.82 C276.94,49.89 277.23,49.95 277.52,50.03 L278.39,50.27 C278.68,50.35 278.97,50.42 279.26,50.52 L280.12,50.8 C280.7,50.97 281.27,51.18 281.83,51.39 C282.39,51.6 282.96,51.85 283.52,52.08 L284.36,52.46 C284.643315,52.579075 284.920344,52.7125832 285.19,52.86 C285.47,53 285.74,53.14 286.02,53.3 L286.44,53.53 L286.89,53.8 L288.17,54.63 L287.75,56.19 C287.479836,57.2819412 287.14593,58.3571166 286.75,59.41 C286.320993,60.467924 285.830145,61.4997049 285.28,62.5 C284.72107,63.491687 284.099824,64.4469367 283.42,65.36 C282.741618,66.2717082 282.006849,67.1400718 281.22,67.96 C280.43,68.77 279.6,69.54 278.75,70.26 C277.9,70.98 276.97,71.64 276.05,72.26 C275.12928,72.8774374 274.178078,73.4481589 273.2,73.97 C272.2,74.49 271.2,74.97 270.2,75.4 C269.2,75.83 268.2,76.24 267.15,76.59 C266.1,76.94 265.08,77.26 264.04,77.54 C263,77.82 261.95,78.07 260.9,78.28 C259.85,78.49 258.79,78.67 257.73,78.82 C256.67,78.97 255.61,79.09 254.54,79.17 C253.47,79.25 252.42,79.31 251.36,79.33 L249.76,79.33 C249.23,79.33 248.7,79.33 248.17,79.33 C247.11,79.2 246.06,79.12 245,78.97 Z" id="Path"></path>
            <path d="M250.46,55.04 C250.87,54.24 251.26,53.43 251.63,52.63 L252.18,51.42 L252.7,50.21 C252.87,49.8 253.04,49.4 253.2,48.99 C253.36,48.58 253.52,48.18 253.67,47.77 C253.82,47.36 253.98,46.95 254.12,46.54 L254.34,45.93 L254.54,45.31 L254.74,44.7 L254.93,44.08 L255.12,43.46 C255.18,43.26 255.23,43.05 255.29,42.84 C255.53,42.02 255.74,41.19 255.93,40.36 L256.2,39.12 L256.43,37.87 C256.55,37.03 256.7,36.21 256.78,35.37 L256.85,34.75 C256.85,34.54 256.85,34.33 256.85,34.13 C256.85,33.71 256.92,33.29 256.93,32.88 L256.93,31.64 C256.93,31.43 256.93,31.22 256.93,31.02 L256.93,30.4 C256.93,30.19 256.93,29.98 256.93,29.78 L256.93,29.16 L256.93,28.55 C256.93,28.34 256.93,28.14 256.93,27.93 L256.78,26.71 C256.73,26.31 256.64,25.9 256.58,25.5 L256.48,24.9 L256.34,24.3 C256.25,23.9 256.17,23.5 256.07,23.1 L255.72,21.92 C255.66,21.73 255.62,21.53 255.55,21.34 L255.34,20.76 C255.2,20.37 255.08,19.98 254.93,19.6 L254.45,18.46 C254.37,18.27 254.3,18.08 254.21,17.9 L253.93,17.34 L253.39,16.23 L255.93,17.23 L255.88,17.23 L255.8,17.23 L255.64,17.23 L255.32,17.34 L254.65,17.56 L253.31,18.07 C252.87,18.25 252.42,18.44 251.98,18.64 L250.67,19.26 L250.01,19.58 L249.37,19.92 L248.09,20.63 L247.46,21 L246.84,21.39 L245.61,22.19 C245.21,22.47 244.8,22.75 244.41,23.04 C244.02,23.33 243.63,23.64 243.23,23.94 L242.66,24.41 L242.09,24.89 L241.53,25.38 L240.99,25.89 C240.62,26.22 240.27,26.58 239.91,26.94 C239.55,27.3 239.21,27.66 238.91,28.04 L238.4,28.61 L237.91,29.19 C237.57,29.58 237.26,29.99 236.91,30.39 C236.99,30.15 237.07,29.9 237.16,29.65 C237.25,29.4 237.33,29.16 237.44,28.92 L237.74,28.2 C237.84,27.96 237.96,27.73 238.07,27.49 C238.29,27.01 238.56,26.56 238.81,26.09 C238.93,25.86 239.08,25.64 239.22,25.42 C239.348232,25.189502 239.488423,24.9658636 239.64,24.75 C239.79,24.52 239.93,24.3 240.08,24.09 L240.55,23.45 C240.86,23.01 241.21,22.61 241.55,22.19 C241.89,21.77 242.25,21.39 242.62,21 C242.99,20.61 243.36,20.24 243.75,19.86 C244.14,19.48 244.52,19.13 244.93,18.79 L245.55,18.27 C245.76,18.1 245.96,17.93 246.18,17.77 C246.4,17.61 246.6,17.43 246.81,17.28 L247.47,16.81 L248.13,16.35 L248.81,15.91 L249.49,15.48 L250.19,15.08 C250.66,14.81 251.13,14.55 251.62,14.31 C252.11,14.07 252.62,13.83 253.09,13.6 L253.85,13.28 L254.25,13.12 L254.45,13.05 L254.69,12.97 L256.33,12.39 L257.22,13.98 L257.92,15.22 L258.26,15.84 C258.38,16.05 258.47,16.27 258.57,16.48 L259.17,17.77 C259.37,18.21 259.53,18.66 259.7,19.1 C260.06,19.99 260.3,20.91 260.58,21.83 C260.7,22.29 260.8,22.75 260.91,23.22 L261.06,23.92 L261.18,24.62 L261.29,25.33 C261.29,25.57 261.37,25.8 261.39,26.04 L261.52,27.46 C261.52,27.7 261.52,27.94 261.52,28.17 L261.52,28.89 L261.52,29.6 C261.52,29.84 261.52,30.07 261.52,30.31 C261.52,30.78 261.52,31.26 261.46,31.73 L261.34,33.14 C261.34,33.61 261.21,34.07 261.14,34.54 C261.07,35.01 260.98,35.46 260.89,35.92 C260.8,36.38 260.71,36.84 260.59,37.29 C260.47,37.74 260.37,38.2 260.24,38.65 L259.83,39.98 C259.68,40.42 259.52,40.86 259.37,41.29 C259.22,41.72 259.03,42.15 258.86,42.58 C258.69,43.01 258.49,43.43 258.31,43.85 C258.21,44.06 258.12,44.27 258.01,44.47 L257.71,45.09 L257.4,45.71 L257.07,46.31 L256.74,46.91 L256.39,47.5 L256.04,48.09 L255.67,48.66 C255.19,49.43 254.67,50.18 254.12,50.91 C253.57,51.64 253.01,52.34 252.41,53.01 C251.804514,53.728062 251.153151,54.4061483 250.46,55.04 L250.46,55.04 Z" id="Path"></path>
            <path d="M268.4,91.5 C268.78,91.17 269.15,90.84 269.52,90.5 L270.61,89.55 C270.97,89.24 271.33,88.94 271.68,88.62 C272.03,88.3 272.39,88.01 272.74,87.7 C273.09,87.39 273.43,87.09 273.74,86.78 L274.74,85.86 L275.74,84.93 L276.74,84 C277.07,83.69 277.37,83.36 277.74,83.05 L278.19,82.58 C278.35,82.42 278.49,82.25 278.64,82.09 C278.79,81.93 278.95,81.77 279.09,81.61 L279.52,81.12 C279.8,80.79 280.1,80.47 280.36,80.12 C280.62,79.77 280.9,79.44 281.17,79.12 C281.31,78.95 281.43,78.78 281.56,78.61 C281.69,78.44 281.82,78.26 281.94,78.08 L282.31,77.56 L282.66,77.02 L282.84,76.75 L283.01,76.48 L283.35,75.93 L283.63,78.2 L283.25,77.68 L282.85,77.13 L282.04,76.03 L281.22,74.93 L280.81,74.38 L280.4,73.83 L279.56,72.73 L279.14,72.18 L278.7,71.63 C278.56,71.44 278.41,71.27 278.26,71.08 C278.11,70.89 277.97,70.72 277.81,70.54 L277.58,70.27 C277.5,70.18 277.42,70.08 277.34,70 C277.26,69.92 277.01,69.64 276.85,69.45 C277.09,69.45 277.34,69.53 277.58,69.58 C277.82712,69.636097 278.070847,69.7062103 278.31,69.79 L278.66,69.9 L279.01,70.04 C279.24,70.13 279.48,70.22 279.7,70.33 C279.92,70.44 280.16,70.53 280.38,70.65 L281.03,71 C281.25,71.12 281.46,71.25 281.67,71.38 C281.88,71.51 282.1,71.63 282.3,71.77 C282.71,72.04 283.12,72.31 283.51,72.61 C283.71,72.75 283.9,72.9 284.09,73.05 L284.67,73.51 C285.05,73.82 285.42,74.14 285.78,74.46 L286.32,74.96 C286.5,75.14 286.67,75.3 286.86,75.5 L287.74,76.4 L287.14,77.77 L286.83,78.49 L286.67,78.84 L286.49,79.19 C286.38,79.42 286.26,79.66 286.13,79.88 L285.74,80.56 C285.61,80.78 285.47,81 285.33,81.21 C285.19,81.42 285.04,81.65 284.89,81.86 C284.59,82.28 284.28,82.69 283.95,83.08 C283.62,83.47 283.28,83.86 282.95,84.24 C282.62,84.62 282.24,84.98 281.86,85.32 C281.48,85.66 281.1,86 280.71,86.32 C280.32,86.64 279.92,86.95 279.51,87.24 C279.1,87.53 278.68,87.82 278.26,88.09 C277.84,88.36 277.4,88.61 276.96,88.85 L276.3,89.2 L275.62,89.53 C275.18,89.74 274.71,89.93 274.25,90.12 C273.79,90.31 273.32,90.47 272.85,90.62 C272.38,90.77 271.9,90.92 271.42,91.03 C270.94,91.14 270.42,91.25 269.95,91.33 C269.438213,91.4246789 268.920142,91.4814996 268.4,91.5 L268.4,91.5 Z" id="Path"></path>
            <path d="M271.3,50.29 L271.66,48.72 L271.83,47.96 L271.99,47.19 L272.3,45.68 C272.3,45.42 272.39,45.18 272.44,44.93 L272.57,44.18 L272.7,43.43 L272.82,42.69 C272.89,42.19 272.97,41.69 273.03,41.21 C273.03,40.96 273.09,40.72 273.12,40.47 C273.15,40.22 273.18,39.98 273.2,39.74 C273.26,39.25 273.3,38.74 273.34,38.28 C273.38,37.82 273.42,37.28 273.44,36.82 C273.46,36.36 273.44,35.82 273.44,35.38 C273.44,34.94 273.44,34.38 273.44,33.94 C273.44,33.7 273.44,33.46 273.44,33.22 L273.44,32.5 C273.44,32.26 273.44,32.03 273.44,31.79 C273.44,31.55 273.44,31.31 273.44,31.07 C273.39,30.6 273.35,30.12 273.28,29.65 C273.21,29.18 273.15,28.71 273.08,28.24 C273.01,27.77 272.9,27.3 272.83,26.82 L274.57,28.38 L273.81,28.22 L273.02,28.06 L272.23,27.91 L271.44,27.75 C271.17,27.75 270.91,27.64 270.64,27.6 L269.85,27.45 L268.25,27.15 L267.45,27 C267.18,27 266.91,26.9 266.64,26.87 L265.83,26.73 L265.02,26.6 C264.75,26.6 264.48,26.54 264.21,26.49 L263.38,26.39 L262.96,26.34 C262.82,26.34 262.68,26.34 262.54,26.34 L261.68,26.27 C261.93,26.12 262.19,25.98 262.45,25.85 C262.71,25.72 262.98,25.61 263.25,25.49 C263.52,25.37 263.8,25.29 264.07,25.19 C264.34,25.09 264.63,25.01 264.91,24.94 L265.75,24.72 L266.61,24.55 C266.89,24.49 267.18,24.45 267.46,24.4 L268.32,24.29 L269.18,24.19 L270.04,24.12 L270.9,24.12 L271.76,24.12 C272.33,24.12 272.9,24.12 273.48,24.12 L274.34,24.12 L275.22,24.19 L276.51,24.3 L276.97,25.74 L277.21,26.54 C277.300505,26.8058777 277.377273,27.0762349 277.44,27.35 L277.64,28.17 C277.7,28.45 277.75,28.72 277.8,29 C277.91,29.55 277.97,30.11 278.05,30.67 C278.05,30.94 278.05,31.22 278.12,31.5 C278.19,31.78 278.17,32.06 278.17,32.34 L278.17,33.18 C278.17,33.46 278.17,33.74 278.17,34.02 C278.17,34.3 278.17,34.58 278.17,34.86 C278.17,35.14 278.17,35.42 278.11,35.69 C278.05,36.25 277.99,36.8 277.9,37.35 C277.81,37.9 277.7,38.44 277.58,38.98 L277.38,39.78 C277.32,40.05 277.24,40.31 277.16,40.58 C277.01,41.11 276.83,41.63 276.64,42.14 C276.45,42.65 276.24,43.14 276.02,43.67 C275.91,43.92 275.79,44.16 275.67,44.41 L275.3,45.14 C275.04,45.62 274.78,46.09 274.49,46.55 L274.05,47.24 C273.9,47.46 273.74,47.69 273.58,47.9 C273.42,48.11 273.26,48.34 273.09,48.55 C272.92,48.76 272.75,48.97 272.57,49.18 C272.171955,49.5779734 271.74767,49.9488054 271.3,50.29 L271.3,50.29 Z" id="Path"></path>
            <path d="M223.8,0 C224.634843,0.619671987 225.432862,1.28747079 226.19,2 C226.95,2.71 227.68,3.47 228.38,4.25 C229.791414,5.8300018 231.044103,7.54491347 232.12,9.37 C232.658885,10.3010089 233.14304,11.2626401 233.57,12.25 C233.996289,13.2569311 234.350514,14.2928715 234.63,15.35 C235.201144,17.5209271 235.373938,19.7774225 235.14,22.01 C234.883744,24.2727484 234.205348,26.4673573 233.14,28.48 C232.619535,29.481133 232.0175,30.4376997 231.34,31.34 C231.02,31.8 230.66,32.23 230.34,32.66 C230.02,33.09 229.61,33.5 229.22,33.89 C228.456111,34.6874794 227.651715,35.4451467 226.81,36.16 C225.98,36.86 225.11,37.53 224.23,38.16 L222.96,39.06 L222.33,39.5 L221.72,39.95 L220.57,40.84 C220.19,41.13 219.82,41.46 219.44,41.77 C217.947449,43.031236 216.540973,44.3909405 215.23,45.84 C213.949381,47.2695924 212.801327,48.8126044 211.8,50.45 C210.802693,52.0549122 209.994006,53.7695972 209.39,55.56 C208.793108,57.3202846 208.439832,59.1539515 208.34,61.01 C208.234923,62.8634908 208.396573,64.7224661 208.82,66.53 C209.261638,68.3735879 209.933587,70.1542516 210.82,71.83 C211.706701,73.5484687 212.769037,75.1704589 213.99,76.67 C215.237377,78.2028841 216.590695,79.6464237 218.04,80.99 L215.88,81.14 C215.951382,81.0746472 216.018205,81.004483 216.08,80.93 C216.15,80.86 216.22,80.76 216.3,80.68 L216.73,80.15 L217.15,79.6 L217.55,79.03 C217.81,78.64 218.08,78.25 218.32,77.84 L218.7,77.24 L219.04,76.62 L219.39,76 L219.71,75.36 L220.03,74.72 C220.14,74.51 220.23,74.28 220.33,74.07 L220.63,73.41 L220.78,73.08 C220.78,72.97 220.87,72.86 220.91,72.75 L221.44,71.4 C221.6,70.95 221.75,70.49 221.9,70.03 C221.98,69.8 222.06,69.57 222.13,69.34 L222.33,68.64 C222.46,68.17 222.6,67.7 222.72,67.23 L223.04,65.8 L223.21,65.09 L223.33,64.36 L223.59,62.91 C223.59,62.67 223.67,62.42 223.7,62.18 L223.78,61.45 C223.84,60.96 223.91,60.45 223.97,59.97 C223.97,60.46 224.04,60.97 224.07,61.46 L224.07,62.2 C224.07,62.4533333 224.07,62.7033333 224.07,62.95 C224.07,63.45 224.07,63.95 224.07,64.45 C224.07,64.7 224.07,64.95 224.07,65.2 L224.07,65.95 L223.96,67.45 C223.9,67.95 223.83,68.45 223.77,68.95 L223.66,69.7 C223.66,69.95 223.57,70.19 223.52,70.44 C223.42,70.94 223.33,71.44 223.22,71.93 L222.84,73.41 L222.75,73.77 L222.63,74.14 L222.4,74.87 C222.33,75.11 222.26,75.36 222.17,75.6 L221.9,76.31 L221.63,77.03 L221.33,77.74 L221.02,78.45 L220.69,79.15 C220.47,79.62 220.22,80.07 219.97,80.53 C219.85,80.75 219.71,80.98 219.57,81.2 C219.43,81.42 219.31,81.65 219.16,81.87 C219.01,82.09 218.87,82.32 218.71,82.54 L218.48,82.87 C218.39,82.99 218.32,83.09 218.2,83.23 L217.27,84.34 L216.04,83.34 C214.338739,82.0132208 212.740802,80.5590309 211.26,78.99 L210.18,77.76 L209.18,76.47 C208.510679,75.5885809 207.896187,74.6668419 207.34,73.71 C206.200662,71.7779615 205.322988,69.7031527 204.73,67.54 C204.125953,65.342776 203.852951,63.0677555 203.92,60.79 C203.990385,58.514104 204.377437,56.2591043 205.07,54.09 C205.770553,51.9591654 206.713391,49.9157905 207.88,48 C209.049628,46.1186528 210.388514,44.3479759 211.88,42.71 L213.01,41.52 C213.39,41.14 213.8,40.77 214.19,40.39 C214.58,40.01 215,39.66 215.41,39.31 L216.02,38.77 L216.65,38.26 C217.08,37.93 217.49,37.59 217.93,37.26 L219.27,36.26 L219.92,35.82 L220.57,35.4 L221.86,34.54 C222.69,34.01 223.47,33.43 224.25,32.85 C225.011667,32.2611942 225.742628,31.633703 226.44,30.97 C226.8,30.65 227.12,30.3 227.44,29.97 C227.76,29.64 228.09,29.28 228.38,28.91 C228.990766,28.1958819 229.542577,27.4333797 230.03,26.63 C230.509989,25.8333302 230.927892,25.0008673 231.28,24.14 C231.629023,23.2776295 231.893594,22.3834445 232.07,21.47 C232.252117,20.5508756 232.349194,19.616931 232.36,18.68 C232.369317,17.7224963 232.299075,16.7658735 232.15,15.82 C232.005723,14.8558003 231.79183,13.9033107 231.51,12.97 C231.230349,12.0183561 230.89647,11.0834946 230.51,10.17 C230.12,9.25 229.67,8.34 229.19,7.46 C228.71,6.58 228.19,5.69 227.63,4.84 C226.476753,3.13272806 225.19646,1.51481161 223.8,0 L223.8,0 Z" id="Path"></path>
            <path d="M195.07,82.6 C194.23,82.92 193.4,83.3 192.59,83.68 C191.78,84.06 190.98,84.48 190.19,84.92 C189.796667,85.1266667 189.406667,85.3466667 189.02,85.58 L187.86,86.26 C187.48,86.5 187.1,86.73 186.73,86.98 C186.36,87.23 185.98,87.48 185.61,87.73 C185.24,87.98 184.88,88.24 184.53,88.51 L183.46,89.31 C183.12,89.59 182.76,89.86 182.46,90.15 L181.46,91.01 L180.46,91.9 L179.51,92.82 C179.19,93.13 178.89,93.45 178.58,93.82 C178.27,94.19 177.99,94.47 177.7,94.82 L177.6,93.26 L178.08,93.6 L178.6,93.94 C178.95,94.16 179.31,94.37 179.67,94.58 C180.39,95 181.12,95.4 181.87,95.78 C183.367297,96.5266641 184.902741,97.1942486 186.47,97.78 C188.034601,98.342422 189.630638,98.8132195 191.25,99.19 C192.861722,99.5652656 194.49472,99.8424411 196.14,100.02 C199.415505,100.370607 202.722436,100.300033 205.98,99.81 C209.224244,99.3162774 212.397135,98.4332399 215.43,97.18 C218.483299,95.9208509 221.401472,94.3562281 224.14,92.51 L225.01,91.82 L225.95,91.05 C226.58,90.51 227.2,89.97 227.8,89.4 C229.01,88.28 230.15,87.1 231.24,85.87 C232.312086,84.6445013 233.313699,83.3590979 234.24,82.02 C235.168573,80.6889596 236.01032,79.2994081 236.76,77.86 C237.506349,76.4317366 238.148035,74.9511794 238.68,73.43 L238.87,72.87 L239.05,72.29 C239.17,71.91 239.26,71.52 239.37,71.14 C239.56,70.37 239.75,69.59 239.87,68.8 C240.138383,67.2376772 240.272207,65.6552056 240.27,64.07 C240.252022,62.4882626 240.087992,60.9115661 239.78,59.36 C239.148622,56.2269903 237.967018,53.2306613 236.29,50.51 C235.445838,49.127479 234.50341,47.8074122 233.47,46.56 C232.419079,45.300505 231.290196,44.1081644 230.09,42.99 C228.883177,41.8573507 227.614569,40.7923876 226.29,39.8 C225.96,39.55 225.63,39.29 225.29,39.05 L224.29,38.31 L223.24,37.55 C222.87,37.26 222.5,36.99 222.15,36.7 C220.711536,35.5744148 219.373207,34.3264231 218.15,32.97 C217.539535,32.2864713 216.968605,31.5686358 216.44,30.82 C215.907536,30.0680661 215.423233,29.2831615 214.99,28.47 L214.82,28.16 L214.67,27.85 C214.57,27.64 214.47,27.43 214.38,27.22 C214.2,26.79 214.01,26.37 213.87,25.92 C213.552223,25.0486294 213.308035,24.1521586 213.14,23.24 C212.969874,22.3289801 212.869583,21.4062963 212.84,20.48 C212.829574,19.5643593 212.879684,18.6490307 212.99,17.74 C213.224774,15.9491748 213.695528,14.1972977 214.39,12.53 C215.054077,10.8859576 215.885096,9.31439424 216.87,7.84 C217.828216,6.37947743 218.89808,4.99534071 220.07,3.7 C220.65,3.06 221.25,2.43 221.88,1.83 C222.51,1.23 223.15,0.65 223.82,0.11 C222.642729,1.36685576 221.553481,2.70335583 220.56,4.11 C219.563856,5.49607412 218.665033,6.94956081 217.87,8.46 C217.091584,9.94569513 216.448972,11.4986729 215.95,13.1 C215.456703,14.6739251 215.161101,16.3030991 215.07,17.95 C215.029879,18.7570374 215.049934,19.5659424 215.13,20.37 C215.218047,21.1624479 215.361735,21.9477197 215.56,22.72 C215.752146,23.4918299 216.013194,24.244852 216.34,24.97 C216.653936,25.7046329 217.025077,26.4134785 217.45,27.09 C217.866225,27.7858339 218.327195,28.4539061 218.83,29.09 C219.337847,29.7181765 219.878604,30.3190179 220.45,30.89 C221.607272,32.0409031 222.854566,33.0975923 224.18,34.05 L225.18,34.74 L226.26,35.44 L227.35,36.14 C227.73,36.38 228.09,36.64 228.46,36.89 C229.93718,37.9025964 231.356098,38.9976673 232.71,40.17 C235.477647,42.5362951 237.895128,45.2837391 239.89,48.33 C240.88822,49.8814123 241.754588,51.5137981 242.48,53.21 C244.672023,58.3846651 245.348293,64.0757361 244.43,69.62 C244.28,70.54 244.08,71.44 243.86,72.34 C243.74,72.79 243.63,73.24 243.49,73.68 L243.29,74.34 L243.07,75 C242.473334,76.7382175 241.747993,78.4295654 240.9,80.06 C240.05501,81.6751665 239.102882,83.2319778 238.05,84.72 C237.010615,86.2071181 235.881871,87.6297371 234.67,88.98 C233.471118,90.3223379 232.199191,91.5976038 230.86,92.8 C230.19,93.41 229.51,93.99 228.86,94.56 L227.8,95.42 L227.28,95.81 L227.03,96.01 L226.9,96.1 L226.9,96.1 L226.72,96.23 L226.65,96.23 C223.623196,98.1742771 220.406679,99.8059896 217.05,101.1 C213.67,102.36 210.14,104.33 206.54,104.72 C203.096649,105.200016 199.603351,105.200016 196.16,104.72 C195.28,104.59 193.99,103.13 193.16,102.93 C192.33,102.73 191.42,102.51 190.56,102.26 C187.139487,101.25469 183.855021,99.834108 180.78,98.03 C180.01,97.58 179.26,97.1 178.53,96.6 C178.16,96.35 177.8,96.09 177.44,95.82 L176.9,95.41 L176.36,94.97 L175.44,94.18 L176.26,93.41 C176.6,93.09 176.93,92.76 177.26,92.41 C177.59,92.06 177.95,91.79 178.26,91.49 C178.57,91.19 178.97,90.91 179.33,90.62 C179.69,90.33 180.06,90.05 180.43,89.78 C180.8,89.51 181.17,89.23 181.55,88.98 C181.93,88.73 182.32,88.46 182.7,88.21 C183.08,87.96 183.48,87.72 183.87,87.49 C184.26,87.26 184.67,87.03 185.06,86.81 C185.45,86.59 185.87,86.36 186.27,86.16 C186.67,85.96 187.09,85.74 187.5,85.54 C188.32,85.14 189.15,84.76 189.99,84.42 C190.83,84.08 191.68,83.76 192.54,83.42 C193.4,83.08 194.19,82.81 195.07,82.6 Z" id="Path"></path>
            <path d="M224.56,95.02 C224.95,94.62 225.37,94.24 225.79,93.88 C226.21,93.52 226.64,93.15 227.08,92.8 C227.96,92.1 228.87,91.43 229.8,90.8 C230.73,90.17 231.69,89.57 232.67,89 C233.65,88.43 234.67,87.9 235.67,87.4 C236.67,86.9 237.74,86.45 238.81,86.03 C239.88,85.61 240.96,85.25 242.07,84.92 C243.178706,84.5870016 244.30346,84.3099849 245.44,84.09 C246.58,83.87 247.73,83.69 248.9,83.58 C250.07,83.47 251.24,83.43 252.42,83.44 C253.603891,83.4536155 254.785946,83.537094 255.96,83.69 C256.55,83.76 257.14,83.86 257.72,83.96 C258.3,84.06 258.89,84.2 259.46,84.35 C260.03,84.5 260.61,84.67 261.19,84.84 C261.77,85.01 262.32,85.21 262.87,85.42 C263.42,85.63 263.98,85.87 264.53,86.11 L265.34,86.49 L265.74,86.68 L266.13,86.89 C267.186689,87.4370862 268.214699,88.0378713 269.21,88.69 C269.69,89.04 270.21,89.36 270.66,89.69 L271.37,90.22 L272.06,90.78 C272.97,91.52 273.84,92.31 274.69,93.13 L276.6,94.98 L274.53,96.59 L274.32,96.75 L274.13,96.89 L273.77,97.15 L273.05,97.65 C272.57,97.97 272.05,98.28 271.59,98.58 L270.86,99.01 L270.11,99.43 L269.36,99.84 L268.59,100.22 C268.09,100.48 267.59,100.7 267.05,100.94 C266.51,101.18 266.05,101.39 265.48,101.6 C264.91,101.81 264.48,102.02 263.89,102.21 L263.09,102.48 L262.68,102.61 L262.27,102.73 C261.19,103.07 260.09,103.36 258.99,103.61 C258.43,103.72 257.88,103.85 257.32,103.94 L255.64,104.21 L253.95,104.4 C253.39,104.45 252.82,104.48 252.26,104.52 L251.84,104.52 L249.72,104.52 L248.87,104.52 L248.02,104.52 L247.6,104.52 L247.18,104.47 L245.5,104.3 C244.39,104.13 243.27,103.99 242.18,103.72 L241.36,103.54 L240.95,103.45 L240.55,103.34 L238.94,102.88 C238.668655,102.808449 238.401564,102.721644 238.14,102.62 L237.35,102.35 C236.83,102.16 236.3,102 235.79,101.76 L234.27,101.12 L233.51,100.77 L232.77,100.4 L232.03,100.03 C231.79,99.9 231.54,99.78 231.31,99.64 L229.88,98.81 C229.65,98.67 229.41,98.54 229.18,98.39 L228.49,97.94 L227.13,97.02 C226.91,96.87 226.69,96.7 226.48,96.53 L225.83,96.03 C225.4,95.7 224.97,95.37 224.55,95.03 C225.55,95.48 226.49,95.98 227.48,96.42 L228.96,97.06 L229.7,97.38 L230.45,97.66 L231.94,98.23 C232.19,98.33 232.44,98.41 232.7,98.49 L233.46,98.73 L234.21,98.98 C234.46,99.06 234.71,99.15 234.97,99.21 L236.5,99.62 C237,99.77 237.5,99.87 238.03,99.98 L238.8,100.15 C239.06,100.15 239.31,100.26 239.57,100.3 L241.12,100.55 L241.5,100.61 L241.89,100.66 L242.67,100.74 L243.44,100.83 C243.7,100.83 243.96,100.83 244.22,100.88 C244.74,100.88 245.22,100.95 245.77,100.97 L247.32,100.97 L247.71,100.97 L248.09,100.97 L248.87,100.97 L249.64,100.97 L250.41,100.9 L251.18,100.84 L251.56,100.84 L251.94,100.79 L253.47,100.59 L254.98,100.32 L256.48,99.99 C256.74,99.94 256.98,99.87 257.23,99.81 L257.97,99.62 C258.97,99.35 259.97,99.04 260.91,98.7 C261.85,98.36 262.82,97.98 263.76,97.59 L265.16,96.96 C265.62,96.72 266.08,96.52 266.53,96.27 C267.44,95.8 268.33,95.27 269.19,94.77 C269.62,94.5 270.05,94.23 270.46,93.95 C270.66,93.81 270.87,93.67 271.06,93.52 L271.35,93.31 L271.49,93.2 L271.6,93.12 L271.44,96.58 C271.06,96.22 270.69,95.85 270.3,95.5 C269.91,95.15 269.52,94.8 269.12,94.5 L268.51,94 L267.9,93.53 C267.49,93.21 267.06,92.92 266.64,92.62 C265.78,92.05 264.92,91.48 264.01,90.99 L263.67,90.8 L263.33,90.63 L262.64,90.28 C262.17,90.07 261.71,89.84 261.24,89.65 C260.77,89.46 260.24,89.27 259.8,89.08 C259.36,88.89 258.8,88.74 258.34,88.6 C257.352881,88.3064869 256.351615,88.0628453 255.34,87.87 C254.321171,87.6820281 253.293045,87.5485052 252.26,87.47 C251.26,87.38 250.17,87.35 249.12,87.36 C248.07,87.37 247.02,87.45 245.96,87.56 C244.9,87.67 243.85,87.83 242.8,88.02 C241.75,88.21 240.7,88.46 239.66,88.73 C238.62,89 237.57,89.31 236.54,89.65 C234.464949,90.3396166 232.428651,91.140783 230.44,92.05 C229.44,92.51 228.44,93 227.44,93.51 C226.44,94.02 225.51,94.44 224.56,95.02 Z" id="Path"></path>
        </g>
    </g>
</svg>